<?xml version="1.0" encoding="UTF-8"?>
<svg xmlns="http://www.w3.org/2000/svg" xmlns:xlink="http://www.w3.org/1999/xlink" width="19pt" height="21pt" viewBox="0 0 19 21" version="1.1">
<g id="surface1">
<path style=" stroke:none;fill-rule:nonzero;fill:rgb(0%,0%,0%);fill-opacity:1;" d="M 17.644531 1.3125 L 1.351562 1.3125 C 0.605469 1.3125 0 1.90625 0 2.636719 L 0 18.363281 C 0 19.09375 0.605469 19.6875 1.351562 19.6875 L 17.644531 19.6875 C 18.390625 19.6875 19 19.09375 19 18.363281 L 19 2.636719 C 19 1.90625 18.390625 1.3125 17.644531 1.3125 Z M 5.742188 17.0625 L 2.925781 17.0625 L 2.925781 8.292969 L 5.746094 8.292969 L 5.746094 17.0625 Z M 4.335938 7.09375 C 3.429688 7.09375 2.703125 6.386719 2.703125 5.515625 C 2.703125 4.648438 3.429688 3.9375 4.335938 3.9375 C 5.234375 3.9375 5.96875 4.648438 5.96875 5.515625 C 5.96875 6.390625 5.238281 7.09375 4.335938 7.09375 Z M 16.296875 17.0625 L 13.480469 17.0625 L 13.480469 12.796875 C 13.480469 11.78125 13.460938 10.472656 12.019531 10.472656 C 10.550781 10.472656 10.328125 11.578125 10.328125 12.722656 L 10.328125 17.0625 L 7.511719 17.0625 L 7.511719 8.292969 L 10.210938 8.292969 L 10.210938 9.492188 L 10.25 9.492188 C 10.628906 8.800781 11.546875 8.074219 12.917969 8.074219 C 15.769531 8.074219 16.296875 9.894531 16.296875 12.253906 Z M 16.296875 17.0625 "/>
</g>
</svg>
